<?xml version="1.0" encoding="utf-8"?>
<!-- Generator: Adobe Illustrator 21.0.0, SVG Export Plug-In . SVG Version: 6.00 Build 0)  -->
<svg version="1.1" id="Layer_1" xmlns="http://www.w3.org/2000/svg" xmlns:xlink="http://www.w3.org/1999/xlink" x="0px" y="0px"
	 viewBox="0 0 125.8 64.2" style="enable-background:new 0 0 125.8 64.2;" xml:space="preserve">
<g>
	<polyline style="fill:#008CC1;" points="14.6,6 14.6,0 47.9,0 47.9,33.4 14.6,33.4 14.6,6 	"/>
</g>
<g>
	<path style="fill:#1A5EAB;" d="M14.6,43.3c0.4,0,0.8,0.1,1.3,0.1c0.5,0,1,0.1,1.7,0.2c0.6-0.1,1.1-0.2,1.6-0.2
		c0.5-0.1,0.9-0.1,1.3-0.1v0.3c-0.8,0-1.3,0.2-1.6,0.7s-0.4,1.4-0.4,3v1.8V54c0,1.5,0.1,2.4,0.4,2.7c0.2,0.3,0.9,0.4,2,0.4
		c1.7,0,2.9-0.2,3.5-0.6c0.6-0.4,1-1.1,1.2-2.3H26c0,0.5-0.1,1-0.2,1.4s-0.2,0.8-0.4,1.1l0,0c0.1,0.3,0.2,0.4,0.2,0.5
		c0,0.2-0.1,0.4-0.3,0.5C25,57.9,24.5,58,23.8,58c-0.1,0-0.4,0-0.8,0s-0.7,0-0.9,0c-1.2,0-2.1,0-2.9-0.1s-1.4-0.1-2-0.2
		c-0.4,0.1-0.9,0.1-1.3,0.2C15.4,58,15,58,14.6,58v-0.3c0.8,0,1.3-0.2,1.6-0.7c0.3-0.4,0.4-1.6,0.4-3.5V53c0,0,0-0.1,0-0.4
		c0-0.2,0-0.4,0-0.6v-2.9c0-0.1,0-0.3,0-0.6s0-0.6,0-0.8c0-1.9-0.1-3-0.4-3.5c-0.3-0.4-0.8-0.6-1.6-0.7V43.3z"/>
	<path style="fill:#1A5EAB;" d="M34.8,52.1l-5.7,0.1c-0.2,0-0.3,0.1-0.4,0.2c-0.1,0.1-0.1,0.4-0.1,0.8c0,1.2,0.3,2.2,1,3
		s1.6,1.2,2.6,1.2c0.5,0,0.9-0.1,1.4-0.3c0.4-0.2,0.9-0.5,1.3-0.9l0.2,0.3c-0.4,0.5-0.9,0.9-1.6,1.2c-0.7,0.3-1.4,0.4-2.2,0.4
		c-1.4,0-2.5-0.4-3.3-1.2s-1.2-2-1.2-3.4c0-1.5,0.4-2.7,1.3-3.7c0.8-1,1.9-1.5,3.1-1.5c1,0,1.8,0.3,2.6,1c0.7,0.6,1.1,1.4,1.1,2.2
		C34.9,51.7,34.8,51.8,34.8,52.1C34.8,52,34.8,52.1,34.8,52.1z M32.6,51.6c0.2,0,0.3,0,0.4-0.1c0.1,0,0.1-0.1,0.1-0.2
		c0-0.6-0.2-1.2-0.6-1.7c-0.4-0.5-0.9-0.7-1.5-0.7c-0.7,0-1.2,0.3-1.6,0.8s-0.6,1.2-0.7,2L32.6,51.6z"/>
	<path style="fill:#1A5EAB;" d="M45.7,48.7l-0.1,0.7c0,0.2-0.1,0.3-0.2,0.3c-0.1,0.1-0.3,0.1-0.6,0.1c-0.1,0-0.3,0-0.5,0
		s-0.5,0-0.8-0.1c0.2,0.3,0.4,0.6,0.5,1c0.1,0.3,0.2,0.7,0.2,1.1c0,1-0.4,1.9-1.1,2.5c-0.7,0.6-1.7,1-2.9,1c-0.3,0-0.5,0.1-0.8,0.4
		c-0.3,0.2-0.4,0.5-0.4,0.8s0.2,0.6,0.5,0.8s0.9,0.3,1.8,0.5c1.8,0.3,3,0.7,3.5,1.1c0.5,0.4,0.8,1,0.8,1.8c0,1-0.5,1.8-1.4,2.5
		s-2.1,1-3.5,1c-1.3,0-2.4-0.3-3.2-0.8s-1.2-1.2-1.2-2s0.4-1.4,1.1-1.9s1.8-0.7,3.2-0.8c-1-0.1-1.7-0.2-2.2-0.5s-0.8-0.7-0.8-1.2
		c0-0.4,0.2-0.7,0.5-1s0.8-0.6,1.4-0.8c-0.8-0.2-1.4-0.6-1.8-1.1c-0.4-0.6-0.6-1.2-0.6-2.1c0-1,0.3-1.8,1-2.5s1.5-1,2.5-1
		c0.5,0,1.1,0.1,1.8,0.3c0.6,0.2,1.1,0.3,1.3,0.3s0.5,0,0.8-0.1C44.6,48.8,45.1,48.8,45.7,48.7z M44.1,61c0-0.7-0.3-1.2-0.9-1.6
		c-0.6-0.4-1.4-0.6-2.5-0.6c-1,0-1.9,0.2-2.4,0.6c-0.6,0.4-0.9,1-0.9,1.7s0.3,1.3,0.9,1.7c0.6,0.4,1.3,0.6,2.3,0.6s1.9-0.2,2.6-0.7
		C43.7,62.3,44.1,61.7,44.1,61z M40.4,48.8c-0.6,0-1,0.2-1.4,0.7c-0.3,0.5-0.5,1.1-0.5,2c0,1,0.2,1.7,0.6,2.3
		c0.4,0.6,0.9,0.9,1.5,0.9s1-0.2,1.3-0.7s0.5-1.1,0.5-2c0-1-0.2-1.8-0.5-2.4C41.5,49.1,41,48.8,40.4,48.8z"/>
	<path style="fill:#1A5EAB;" d="M53.6,52.2v2.2c0,1.1,0.1,1.8,0.2,2.1c0.1,0.3,0.4,0.5,0.8,0.5c0.1,0,0.2,0,0.3-0.1
		c0.1,0,0.2-0.1,0.3-0.2l0.2,0.3c-0.4,0.3-0.7,0.6-1.1,0.8C54,58,53.6,58,53.3,58c-0.4,0-0.7-0.1-0.9-0.4c-0.2-0.3-0.4-0.7-0.4-1.3
		c-0.4,0.6-0.8,1-1.4,1.3s-1.2,0.5-1.9,0.5c-0.8,0-1.4-0.2-1.8-0.5c-0.4-0.4-0.6-0.9-0.6-1.5c0-1.2,1.1-2.1,3.4-2.7
		c0.3-0.1,0.6-0.2,0.8-0.2c0.6-0.2,1.1-0.4,1.2-0.5c0.2-0.2,0.2-0.5,0.2-1c0-1-0.1-1.7-0.4-2.1c-0.3-0.4-0.7-0.6-1.3-0.6
		c-0.5,0-0.8,0.1-1.1,0.4c-0.3,0.3-0.4,0.6-0.4,1.1c0,0.2,0,0.3,0,0.5s0.1,0.3,0.1,0.5c-0.2,0.1-0.3,0.1-0.4,0.2c-0.1,0-0.3,0-0.4,0
		c-0.3,0-0.5-0.1-0.7-0.2c-0.2-0.2-0.3-0.4-0.3-0.6c0-0.6,0.3-1.2,0.9-1.6c0.6-0.4,1.4-0.6,2.4-0.6c1.1,0,1.8,0.3,2.3,0.9
		C53.4,50,53.6,50.9,53.6,52.2z M52,53.2c-0.4,0.1-0.9,0.3-1.5,0.4c-1.6,0.4-2.5,1.1-2.5,2c0,0.5,0.1,0.9,0.4,1.2
		c0.3,0.3,0.7,0.5,1.2,0.5c0.7,0,1.3-0.2,1.7-0.7s0.6-1.1,0.6-1.9L52,53.2L52,53.2z"/>
	<path style="fill:#1A5EAB;" d="M59.2,42.8L59.2,42.8c0.1,0.7,0,1.2,0,1.8s0,1.1,0,1.7v8.1c0,1.4,0.1,2.3,0.3,2.7
		c0.2,0.3,0.6,0.5,1.3,0.5v0.3c-0.3,0-0.5,0-0.9-0.1c-0.3,0-0.8-0.1-1.5-0.2c-0.5,0.1-0.9,0.1-1.3,0.2c-0.4,0-0.8,0.1-1.1,0.1v-0.3
		c0.6,0,1.1-0.2,1.3-0.6c0.2-0.4,0.3-1.4,0.3-3v-6.7c0-1.6-0.1-2.6-0.3-2.9c-0.2-0.3-0.6-0.5-1.3-0.5v-0.3c0.4-0.1,0.8-0.1,1.1-0.1
		c0.4,0,0.7-0.1,1.1-0.1c0.2-0.1,0.3-0.2,0.5-0.3C58.9,43,59,42.9,59.2,42.8z"/>
	<path style="fill:#1A5EAB;" d="M71.2,43.3l0.4,0.1c0,0.2-0.1,0.4-0.1,0.5c-0.1,0.2-0.1,0.4-0.3,0.6c0.1,0.4,0.1,0.8,0.1,1.1
		s0,0.6,0,0.9h-0.5c-0.1-0.9-0.5-1.6-1-2.1c-0.6-0.5-1.3-0.7-2.3-0.7c-0.8,0-1.5,0.2-2,0.7s-0.8,1.1-0.8,1.8s0.2,1.3,0.7,1.8
		s1.4,1.1,2.9,1.7c1.6,0.7,2.6,1.4,3.1,2s0.8,1.4,0.8,2.3c0,1.3-0.5,2.3-1.4,3c-0.9,0.8-2.1,1.1-3.7,1.1c-0.7,0-1.5-0.1-2.3-0.4
		c-0.8-0.3-1.3-0.4-1.4-0.4c-0.1,0-0.2,0-0.3,0.1s-0.1,0.1-0.2,0.2l-0.4-0.1c0.1-0.2,0.1-0.4,0.2-0.7c0.1-0.2,0.2-0.4,0.3-0.6
		c0.1-0.2,0-0.6,0-0.9s-0.1-0.6-0.1-0.9h0.4c0.2,1.1,0.6,1.9,1.3,2.5c0.7,0.6,1.6,0.9,2.7,0.9c0.9,0,1.7-0.3,2.3-0.8
		c0.6-0.5,0.9-1.2,0.9-1.9c0-0.8-0.2-1.4-0.6-1.9s-1.5-1.1-3.1-1.9c-1.4-0.6-2.3-1.2-2.8-1.8s-0.8-1.3-0.8-2.2
		c0-1.2,0.4-2.1,1.3-2.8c0.8-0.7,1.9-1.1,3.3-1.1c0.7,0,1.3,0.1,2,0.2c0.7,0.1,1.1,0.2,1.1,0.2c0.1,0,0.2,0,0.2,0
		C71.1,43.5,71.2,43.4,71.2,43.3z"/>
	<path style="fill:#1A5EAB;" d="M76.7,46.2h0.5v2.7h2.5v0.7h-2.5v4.3V54c0,1.2,0.1,2.1,0.4,2.6s0.8,0.8,1.4,0.8
		c0.3,0,0.6-0.1,0.9-0.2c0.3-0.1,0.6-0.3,0.9-0.6l0.2,0.3c-0.4,0.4-0.8,0.7-1.2,0.9c-0.5,0.2-1,0.3-1.5,0.3c-1,0-1.8-0.3-2.2-0.9
		s-0.7-1.6-0.7-3.1v-0.3l0.1-4.2h-1.7v-0.4c0.8-0.1,1.4-0.4,1.9-0.9C76.3,47.8,76.6,47.1,76.7,46.2z"/>
	<path style="fill:#1A5EAB;" d="M84.6,48.3L84.6,48.3c0.1,0.5,0,1,0,1.5s0,1.1-0.1,1.8h0.2c0.3-1,0.6-1.8,1.1-2.3
		c0.4-0.5,1-0.8,1.5-0.8c0.4,0,0.7,0.1,0.9,0.3c0.3,0.2,0.4,0.4,0.4,0.7c0,0.2-0.1,0.4-0.2,0.5s-0.3,0.3-0.6,0.3
		c-0.2-0.2-0.3-0.4-0.5-0.5s-0.4-0.2-0.6-0.2c-0.6,0-1.1,0.4-1.5,1.2s-0.5,1.9-0.5,3.3c0,1.5,0.1,2.4,0.4,2.8
		c0.3,0.3,0.8,0.5,1.6,0.6v0.3c-0.4,0-0.8,0-1.3-0.1c-0.5,0-0.9-0.1-1.5-0.2c-0.5,0.1-1,0.1-1.3,0.2c-0.4,0-0.7,0.1-1,0.1v-0.3
		c0.6,0,1-0.2,1.2-0.6c0.2-0.3,0.3-1.3,0.3-2.8V54v-1.2c0-1.6-0.1-2.5-0.3-2.9c-0.2-0.3-0.6-0.5-1.3-0.5v-0.3
		c0.4-0.1,0.8-0.1,1.1-0.2c0.4,0,0.7-0.1,1-0.1c0.1-0.1,0.3-0.2,0.4-0.3C84.3,48.5,84.4,48.4,84.6,48.3z"/>
	<path style="fill:#1A5EAB;" d="M97.4,52.1l-5.7,0.1c-0.2,0-0.3,0.1-0.4,0.2c-0.1,0.1-0.1,0.4-0.1,0.8c0,1.2,0.3,2.2,1,3
		s1.6,1.2,2.6,1.2c0.5,0,0.9-0.1,1.4-0.3c0.4-0.2,0.9-0.5,1.3-0.9l0.2,0.3c-0.4,0.5-0.9,0.9-1.6,1.2s-1.4,0.4-2.2,0.4
		c-1.4,0-2.5-0.4-3.3-1.2s-1.2-2-1.2-3.4c0-1.5,0.4-2.7,1.3-3.7s1.9-1.5,3.1-1.5c1,0,1.8,0.3,2.6,1c0.7,0.6,1.1,1.4,1.1,2.2
		C97.5,51.7,97.4,51.8,97.4,52.1C97.4,52,97.4,52.1,97.4,52.1z M95.2,51.6c0.2,0,0.3,0,0.4-0.1c0.1,0,0.1-0.1,0.1-0.2
		c0-0.6-0.2-1.2-0.6-1.7s-0.9-0.7-1.5-0.7c-0.7,0-1.2,0.3-1.6,0.8s-0.6,1.2-0.7,2L95.2,51.6z"/>
	<path style="fill:#1A5EAB;" d="M106.4,52.2v2.2c0,1.1,0.1,1.8,0.2,2.1s0.4,0.5,0.8,0.5c0.1,0,0.2,0,0.3-0.1c0.1,0,0.2-0.1,0.3-0.2
		l0.2,0.3c-0.4,0.3-0.7,0.6-1.1,0.8c-0.3,0.2-0.7,0.2-1,0.2c-0.4,0-0.7-0.1-0.9-0.4c-0.2-0.3-0.4-0.7-0.4-1.3
		c-0.4,0.6-0.8,1-1.4,1.3s-1.2,0.5-1.9,0.5c-0.8,0-1.4-0.2-1.8-0.5c-0.4-0.4-0.6-0.9-0.6-1.5c0-1.2,1.1-2.1,3.4-2.7
		c0.3-0.1,0.6-0.2,0.8-0.2c0.6-0.2,1.1-0.4,1.2-0.5c0.2-0.2,0.2-0.5,0.2-1c0-1-0.1-1.7-0.4-2.1c-0.3-0.4-0.7-0.6-1.3-0.6
		c-0.5,0-0.8,0.1-1.1,0.4c-0.3,0.3-0.4,0.6-0.4,1.1c0,0.2,0,0.3,0,0.5s0.1,0.3,0.1,0.5c-0.2,0.1-0.3,0.1-0.4,0.2c-0.1,0-0.3,0-0.4,0
		c-0.3,0-0.5-0.1-0.7-0.2c-0.2-0.2-0.3-0.4-0.3-0.6c0-0.6,0.3-1.2,0.9-1.6c0.6-0.4,1.4-0.6,2.4-0.6c1.1,0,1.8,0.3,2.3,0.9
		C106.1,50,106.4,50.9,106.4,52.2z M104.8,53.2c-0.4,0.1-0.9,0.3-1.5,0.4c-1.6,0.4-2.5,1.1-2.5,2c0,0.5,0.1,0.9,0.4,1.2
		s0.7,0.5,1.2,0.5c0.7,0,1.3-0.2,1.7-0.7c0.4-0.5,0.6-1.1,0.6-1.9v-1.5H104.8z"/>
	<path style="fill:#1A5EAB;" d="M112,48.3L112,48.3c0.1,0.6,0,1.1,0,1.4c0,0.3,0,0.6,0,0.9h0.1c0.3-0.6,0.7-1.1,1.3-1.5
		c0.6-0.4,1.2-0.6,1.8-0.6c0.8,0,1.4,0.2,1.8,0.6c0.5,0.4,0.8,0.9,1,1.7c0.3-0.7,0.8-1.3,1.4-1.7s1.2-0.6,1.9-0.6c1,0,1.7,0.3,2.2,1
		s0.7,1.8,0.7,3.4v1.2c0,1.7,0.1,2.7,0.3,3c0.2,0.4,0.6,0.5,1.3,0.6V58c-0.3,0-0.6,0-1-0.1c-0.4,0-0.8-0.1-1.2-0.2
		c-0.1,0-0.3,0.1-0.5,0.1s-0.4,0.1-0.7,0.1c0-0.5,0.1-1.1,0.1-1.7c0-0.6,0-1.2,0-1.9c0-2-0.2-3.4-0.5-4c-0.3-0.7-0.8-1-1.6-1
		c-0.8,0-1.3,0.3-1.7,0.9c-0.4,0.6-0.6,1.5-0.6,2.6v1.6c0,1.4,0.1,2.3,0.3,2.7c0.2,0.3,0.6,0.5,1.3,0.6V58c-0.3,0-0.6,0-0.9-0.1
		c-0.3,0-0.8-0.1-1.4-0.2c-0.1,0-0.3,0-0.6,0.1c-0.7,0.1-1.3,0.2-1.5,0.2v-0.3c0.5,0,0.9-0.2,1.1-0.6c0.2-0.3,0.3-1.3,0.3-2.9v-1.1
		c0-1.3-0.2-2.2-0.5-2.8s-0.9-0.9-1.6-0.9s-1.3,0.3-1.7,0.9c-0.4,0.6-0.6,1.4-0.6,2.4v1.7c0,1.5,0.1,2.4,0.3,2.8
		c0.2,0.3,0.6,0.5,1.2,0.6v0.3c-0.2,0-0.5,0-0.8-0.1c-0.3,0-0.8-0.1-1.4-0.2c-0.5,0.1-0.9,0.1-1.3,0.2c-0.4,0-0.7,0.1-1,0.1v-0.3
		c0.6,0,1-0.2,1.2-0.6c0.2-0.3,0.3-1.3,0.3-2.8v-0.2v-1.4c0-1.5-0.1-2.4-0.3-2.7c-0.2-0.3-0.6-0.5-1.3-0.5v-0.3
		c0.4-0.1,0.8-0.1,1.2-0.2c0.4,0,0.7-0.1,1-0.1c0.2-0.1,0.3-0.2,0.5-0.3C111.7,48.5,111.8,48.4,112,48.3z"/>
</g>
<g>
	<g>
		<path style="fill:#1A5EAB;" d="M0,10.4c21.8,1.4,43.7,4.1,65.3,2.3"/>
		<g>
			<g>
				<g>
					<g>
						<path style="fill:#1A5EAB;" d="M59.9,12.8h-0.7c0.1,0,0.2,0,0.3,0.1C59.7,12.9,59.8,12.8,59.9,12.8z"/>
						<path style="fill:#1A5EAB;" d="M58.6,12.8L58.6,12.8h-0.2C58.5,12.8,58.6,12.8,58.6,12.8z"/>
						<path style="fill:#1A5EAB;" d="M57.5,12.9c0.2,0,0.4,0,0.6,0C57.9,12.9,57.7,12.9,57.5,12.9z"/>
						<path style="fill:#1A5EAB;" d="M58.4,12.9C58.3,12.9,58.3,12.9,58.4,12.9L58.4,12.9h-0.3C58.2,12.9,58.3,12.9,58.4,12.9z"/>
						<path style="fill:#1A5EAB;" d="M58.4,12.9c0.1,0,0.2,0,0.2,0.1C58.6,13,58.5,12.9,58.4,12.9z"/>
						<path style="fill:#1A5EAB;" d="M58.2,13.6c-0.1,0-0.1-0.2-0.3-0.1c-0.5,0.1-1,0.2-1.5,0.2c-0.2,0-0.6-0.2-0.8-0.1
							c-0.5,0.1-1.9,0.4-1.1,0.3c1.2-0.1,2-0.1,3.1-0.2c0.9-0.1,1.7-0.2,2.6-0.4c0.3,0,0.5,0,0.7,0c-0.3,0-0.6,0-1,0
							C59.4,13.3,58.9,13.5,58.2,13.6z"/>
						<path style="fill:#1A5EAB;" d="M64.7,12.6c-0.1,0-0.3,0.1-0.3,0.1c-0.5-0.1-1,0-1.6,0.1l0.2,0.1c0.3,0,0.3-0.1,0.1-0.1
							c0.6,0.1,1.2,0,1.8,0C64.9,12.7,64.9,12.6,64.7,12.6z"/>
						<path style="fill:#1A5EAB;" d="M65.3,12.7c-0.1,0-0.2,0-0.4,0l0,0C65,12.7,65.2,12.7,65.3,12.7L65.3,12.7z"/>
						<path style="fill:#1A5EAB;" d="M55.1,13.2c-1.5,0.1-2.9,0.1-4.3,0c-0.1,0-0.2,0.1-0.3,0.1s-0.2-0.1-0.3-0.1h-0.6
							c-0.1,0-0.1,0-0.2,0l0,0c-0.1,0-0.1,0.1,0,0.1s0.2,0,0.2,0.1c0,0-0.1,0-0.2-0.1c-0.1,0-0.2,0-0.3-0.1c-0.2,0-0.4,0-0.6,0
							c0.2,0,0.4,0,0.6,0h0.3h0.1h-1.4c-0.1,0-0.2,0-0.3,0c-0.3,0-0.7,0-0.9-0.1h-0.2l0,0h-0.1c-0.3,0-0.7,0-1,0
							c-0.2,0-0.5,0.1-0.7,0.1l-0.2-0.1c-0.1,0-0.2,0.1-0.4,0.1c0.2,0.1,0.4,0.1,0.5,0.2c0.2,0.1,0.5-0.2,0.8,0
							c-0.3-0.2-0.6,0.1-0.8,0c-0.2,0-0.3-0.1-0.5-0.2c-0.3,0-0.8,0-1.1-0.1c0.4-0.1,0.8,0,1.1,0.1c0.2,0,0.3,0,0.4-0.1
							c0.1,0,0.2,0.1,0.2,0.1c0.2,0,0.5-0.1,0.7-0.1c-0.7,0-1.4-0.1-2.1-0.1c-4.5-0.2-8.7-0.4-13.4-0.8c-2.5-0.2-5-0.5-7.4-0.8
							c-4.8-0.6-9.2-0.7-14-1.5C6.8,9.6,3.3,9.4,1.5,9.3c-2.4,0.2-1.2,1.1-1.1,1.1C1.9,11.2,3,10.9,6,11.5c-2-0.4,1.5-0.3,3.4,0.3
							c2.7,0.9,6.8,0.7,10.2,1.1c0.9,0.1,1.8,0.1,2.8,0.2c5.3,0.6,10.3,0.7,16,1c1.5,0.1,2.8-0.1,4.1-0.1c0.9,0,1.9,0.1,2.7,0.1
							c1.2,0,2.2,0,3.2-0.1c-1.1,0-1.9,0-3.1,0.1c-0.8,0,0.6-0.2,1.1-0.3c0.2,0,0.6,0.2,0.8,0.1c0.5,0,1-0.1,1.5-0.1
							c0.2,0,0.2,0.2,0.3,0.1c0.7,0,1.3-0.3,1.8-0.2c0.3,0,0.7,0.1,1,0.1c0.2,0,0.4,0,0.6,0c0.1,0,0.3,0,0.4-0.1
							c-0.1-0.1-0.1-0.1-0.2-0.2c0.2,0,0.5,0.1,0.7,0.1c-0.2,0-0.5,0-0.7-0.1c0,0.1,0.1,0.1,0.2,0.2c1-0.1,2.1-0.3,3.1-0.4l0,0
							c-0.6,0-1.2,0-1.8-0.1c0.3,0,0.2,0.1-0.1,0.1l-0.2-0.1c0.5-0.1,1.1-0.1,1.6,0c0,0,0.2,0,0.3-0.1c0.2,0,0.2,0.1,0.2,0.1
							c0.1,0,0.2,0,0.4,0C55.9,13.3,55.1,13.2,55.1,13.2z"/>
						<path style="fill:#1A5EAB;" d="M48.9,13.2c0.1,0,0.2,0,0.3,0H48C48.3,13.3,48.6,13.2,48.9,13.2z"/>
					</g>
				</g>
			</g>
		</g>
	</g>
	<g>
		<path style="fill:#1A5EAB;" d="M1.4,13.8c20.8,1.4,41.7,4.1,62.2,2.3"/>
		<g>
			<g>
				<g>
					<g>
						<path style="fill:#1A5EAB;" d="M58.5,16.2h-0.6c0.1,0,0.2,0,0.3,0.1C58.3,16.3,58.4,16.2,58.5,16.2z"/>
						<path style="fill:#1A5EAB;" d="M57.3,16.2L57.3,16.2h-0.2C57.1,16.2,57.2,16.2,57.3,16.2z"/>
						<path style="fill:#1A5EAB;" d="M56.2,16.3c0.2,0,0.4,0,0.6,0C56.6,16.3,56.4,16.3,56.2,16.3z"/>
						<path style="fill:#1A5EAB;" d="M57,16.3C57,16.3,56.9,16.3,57,16.3L57,16.3h-0.3C56.8,16.3,56.9,16.3,57,16.3z"/>
						<path style="fill:#1A5EAB;" d="M57,16.3c0.1,0,0.2,0,0.2,0.1C57.2,16.4,57.1,16.3,57,16.3z"/>
						<path style="fill:#1A5EAB;" d="M56.8,17c-0.1,0-0.1-0.2-0.3-0.1c-0.5,0.1-0.9,0.2-1.4,0.2c-0.2,0-0.6-0.2-0.8-0.1
							c-0.5,0.1-1.8,0.4-1,0.3c1.2-0.1,1.9-0.1,2.9-0.2l2.5-0.4c0.2,0,0.5,0,0.7,0c-0.3,0-0.6,0-0.9,0C58,16.7,57.5,16.9,56.8,17z"
							/>
						<path style="fill:#1A5EAB;" d="M63,16c-0.1,0-0.3,0.1-0.3,0.1c-0.5-0.1-1,0-1.5,0.1l0.2,0.1c0.3,0,0.3-0.1,0.1-0.1
							c0.6,0.1,1.2,0,1.7,0C63.2,16.1,63.2,16,63,16z"/>
						<path style="fill:#1A5EAB;" d="M63.6,16.1c-0.1,0-0.2,0-0.3,0l0,0C63.4,16.1,63.5,16.1,63.6,16.1L63.6,16.1z"/>
						<path style="fill:#1A5EAB;" d="M53.9,16.6c-1.4,0.1-2.8,0.1-4.1,0c-0.1,0-0.2,0.1-0.3,0.1s-0.2-0.1-0.3-0.1h-0.6
							c-0.1,0-0.1,0-0.2,0l0,0c-0.1,0-0.1,0.1,0,0.1s0.1,0,0.2,0.1c0,0-0.1,0-0.2-0.1c-0.1,0-0.2,0-0.3-0.1c-0.2,0-0.4,0-0.6,0
							c0.2,0,0.4,0,0.6,0h0.3h0.1c-0.4,0-0.9,0-1.3,0c-0.1,0-0.2,0-0.3,0c-0.3,0-0.6,0-0.8-0.1h-0.2l0,0h-0.1h-1
							c-0.2,0-0.4,0.1-0.7,0.1c0,0-0.1-0.1-0.2-0.1c-0.1,0-0.2,0.1-0.4,0.1c0.2,0.1,0.3,0.1,0.5,0.2s0.5-0.2,0.8,0
							c-0.3-0.2-0.5,0.1-0.8,0c-0.2,0-0.3-0.1-0.5-0.2c-0.3,0-0.7,0-1.1-0.1c0.4-0.1,0.8,0,1.1,0.1c0.2,0,0.3,0,0.4-0.1
							c0.1,0,0.2,0.1,0.2,0.1c0.2,0,0.4-0.1,0.7-0.1c-0.7,0-1.3-0.1-2-0.1c-4.3-0.2-8.3-0.4-12.8-0.8c-2.4-0.2-4.8-0.5-7-0.8
							c-4.5-0.6-8.7-0.7-13.3-1.5c-1.8-0.3-5.1-0.5-6.8-0.6c-2.3,0.2-1.2,1.1-1.1,1.1c1.4,0.8,2.5,0.5,5.3,1.1
							c-1.9-0.4,1.5-0.3,3.3,0.3c2.6,0.9,6.5,0.7,9.7,1.1c0.8,0.1,1.7,0.1,2.7,0.2c5.1,0.6,9.9,0.7,15.2,1c1.4,0.1,2.7-0.1,3.9-0.1
							c0.9,0,1.8,0.1,2.5,0.1c1.1,0,2.1,0,3-0.1c-1,0-1.8,0-2.9,0.1c-0.8,0,0.5-0.2,1.1-0.3c0.2,0,0.6,0.2,0.8,0.1
							c0.5,0,0.9-0.1,1.4-0.1c0.2,0,0.2,0.2,0.3,0.1c0.7,0,1.2-0.3,1.7-0.2c0.3,0,0.6,0.1,0.9,0.1c0.2,0,0.4,0,0.6,0
							c0.1,0,0.2,0,0.4-0.1c-0.1-0.1-0.1-0.1-0.2-0.2c0.2,0,0.4,0.1,0.6,0.1c-0.2,0-0.4,0-0.6-0.1c0,0.1,0.1,0.1,0.2,0.2
							c0.9-0.1,2-0.3,2.9-0.4l0,0c-0.6,0-1.1,0-1.7-0.1c0.3,0,0.2,0.1-0.1,0.1l-0.2-0.1c0.5-0.1,1-0.1,1.5,0c0,0,0.2,0,0.3-0.1
							c0.2,0,0.2,0.1,0.2,0.1c0.1,0,0.2,0,0.3,0C54.6,16.7,53.9,16.6,53.9,16.6z"/>
						<path style="fill:#1A5EAB;" d="M48,16.6c0.1,0,0.2,0,0.3,0h-1.1C47.4,16.7,47.7,16.6,48,16.6z"/>
					</g>
				</g>
			</g>
		</g>
	</g>
	<g>
		<path style="fill:#1A5EAB;" d="M6.7,25.5c27.8-0.9,55.7-1.8,83.1,0"/>
		<g>
			<g>
				<g>
					<g>
						<path style="fill:#1A5EAB;" d="M83,24.8l-0.8-0.1c0.1,0,0.3,0,0.4,0.1C82.8,24.9,82.9,24.8,83,24.8z"/>
						<path style="fill:#1A5EAB;" d="M81.4,24.7L81.4,24.7h-0.2C81.2,24.7,81.3,24.7,81.4,24.7z"/>
						<path style="fill:#1A5EAB;" d="M79.9,24.7c0.3,0,0.5,0,0.7,0C80.5,24.7,80.2,24.7,79.9,24.7z"/>
						<path style="fill:#1A5EAB;" d="M81.1,24.8C81,24.8,81,24.7,81.1,24.8L81.1,24.8l-0.4-0.1C80.8,24.7,81,24.8,81.1,24.8z"/>
						<path style="fill:#1A5EAB;" d="M81.1,24.8c0.1,0,0.2,0.1,0.3,0.1C81.3,24.8,81.2,24.8,81.1,24.8z"/>
						<path style="fill:#1A5EAB;" d="M80.7,25.5c-0.1,0-0.1-0.2-0.4-0.1c-0.7,0-1.3,0.1-1.9,0.1c-0.3,0-0.7-0.2-1-0.2
							c-0.7,0-2.4,0.2-1.4,0.2c1.5,0,2.5,0,3.9,0c1.1,0,2.2-0.1,3.3-0.1c0.3,0,0.6,0,0.9,0.1c-0.4,0-0.8-0.1-1.2-0.1
							C82.3,25.2,81.6,25.5,80.7,25.5z"/>
						<path style="fill:#1A5EAB;" d="M89.1,25.3c-0.1,0-0.4,0-0.4,0c-0.6-0.2-1.3-0.2-2-0.2l0.3,0.1c0.4,0,0.4,0,0.1-0.1
							c0.8,0.2,1.5,0.2,2.3,0.3C89.3,25.4,89.3,25.3,89.1,25.3z"/>
						<path style="fill:#1A5EAB;" d="M89.8,25.4c-0.2,0-0.3,0-0.4,0l0,0C89.5,25.4,89.7,25.4,89.8,25.4L89.8,25.4z"/>
						<path style="fill:#1A5EAB;" d="M76.9,24.7c-1.9-0.1-3.7-0.1-5.5-0.2c-0.1,0-0.2,0.1-0.4,0c-0.1,0-0.3-0.1-0.4-0.1h-0.8
							c-0.1,0-0.2,0-0.3,0l0,0c-0.1,0-0.1,0,0,0.1c0.1,0,0.2,0,0.3,0.1c-0.1,0-0.2,0-0.3-0.1c-0.1,0-0.3-0.1-0.4-0.1
							c-0.2,0-0.5,0-0.7,0c0.3,0,0.5,0,0.7,0c0.1,0,0.3,0,0.4,0h0.1l-1.8-0.1c-0.1,0-0.3,0-0.4,0c-0.4,0-0.9,0-1.1-0.1
							c-0.1,0-0.2,0-0.3,0c0,0,0,0,0.1,0H66c-0.4,0-0.9,0-1.3,0c-0.3,0-0.6,0.1-0.9,0.1c0,0-0.2-0.1-0.3-0.1s-0.3,0.1-0.5,0.1
							c0.2,0.1,0.5,0.1,0.7,0.2c0.3,0.1,0.7-0.2,1,0c-0.4-0.2-0.7,0.1-1,0c-0.2,0-0.4-0.1-0.7-0.2c-0.4,0-1,0-1.4-0.1
							c0.5-0.1,1,0,1.4,0.1c0.2,0,0.4,0,0.5-0.1c0.1,0,0.3,0.1,0.3,0.1c0.3,0,0.6-0.1,0.9-0.1c-0.9,0-1.8-0.1-2.6-0.1
							c-5.9-0.1-11.2,0-17.2-0.1c-3.2,0-6.4-0.1-9.4-0.1c-6.1-0.1-11.7,0.3-17.9,0c-2.4-0.1-6.8,0.1-9,0.2c-3,0.4-1.4,1.2-1.3,1.2
							c1.9,0.6,3.4,0.2,7.2,0.5c-2.6-0.2,1.9-0.5,4.4-0.1c3.6,0.6,8.6-0.1,13,0c1.1,0,2.3,0,3.6-0.1c6.8,0.1,13.1-0.3,20.3-0.2
							c1.9,0,3.6-0.2,5.2-0.3c1.2,0,2.4,0.1,3.4,0.1c1.5,0,2.8,0,4-0.1c-1.4,0-2.4,0-3.9,0c-1,0,0.7-0.2,1.4-0.3
							c0.3,0,0.7,0.2,1,0.1c0.6,0,1.2-0.1,1.9-0.1c0.3,0,0.3,0.2,0.4,0.1c0.9,0,1.6-0.2,2.2-0.2c0.4,0,0.8,0.1,1.2,0.1
							c0.2,0,0.5,0,0.8,0c0.2,0,0.3,0,0.5,0c-0.1-0.1-0.2-0.1-0.2-0.2c0.2,0,0.6,0.1,0.8,0.1c-0.2,0-0.6-0.1-0.8-0.1
							c0,0.1,0.1,0.1,0.2,0.2c1.2-0.1,2.6-0.1,3.9-0.2l0,0c-0.8,0-1.5-0.1-2.3-0.2c0.3,0.1,0.3,0.1-0.1,0.1l-0.3-0.1
							c0.7,0,1.4-0.1,2,0.1c0,0,0.3,0,0.4,0c0.2,0,0.2,0.1,0.2,0.1c0.1,0,0.3,0,0.5,0C77.9,24.9,76.9,24.7,76.9,24.7z"/>
						<path style="fill:#1A5EAB;" d="M69,24.5c0.1,0,0.2,0,0.4,0l-1.5-0.1C68.2,24.5,68.6,24.5,69,24.5z"/>
					</g>
				</g>
			</g>
		</g>
	</g>
</g>
</svg>
